<?xml version="1.0" standalone="no"?>
<!DOCTYPE svg PUBLIC "-//W3C//DTD SVG 20010904//EN"
 "http://www.w3.org/TR/2001/REC-SVG-20010904/DTD/svg10.dtd">
<svg version="1.0" xmlns="http://www.w3.org/2000/svg"
 width="1140.000000pt" height="312.000000pt" viewBox="0 0 1140.000000 312.000000"
 preserveAspectRatio="xMidYMid meet">

<g transform="translate(0.000000,312.000000) scale(0.100000,-0.100000)"
fill="#000000" stroke="none">
<path d="M1390 1749 c-248 -30 -577 -172 -882 -381 -217 -149 -362 -334 -329
-420 7 -18 18 -28 31 -28 17 0 20 6 20 41 0 66 27 107 149 229 143 142 277
234 496 341 274 133 424 178 596 179 82 0 102 -4 145 -25 56 -28 94 -77 94
-122 0 -34 -20 -58 -108 -131 -59 -49 -85 -91 -80 -130 9 -82 163 11 199 120
21 64 64 100 170 140 282 108 574 148 939 128 118 -6 223 -16 232 -21 10 -5
37 -9 60 -9 24 0 61 -4 83 -9 60 -14 191 -24 182 -15 -12 13 -179 36 -457 64
-163 16 -472 14 -611 -5 -145 -19 -315 -61 -439 -109 -52 -21 -102 -39 -111
-42 -11 -4 -19 6 -28 38 -35 117 -90 155 -256 172 -16 2 -59 0 -95 -5z m274
-354 c-25 -44 -98 -105 -110 -92 -13 13 43 90 85 117 24 17 46 28 49 26 2 -3
-9 -25 -24 -51z"/>
<path d="M11010 1585 c-254 -74 -366 -104 -463 -126 -45 -10 -54 -15 -42 -22
11 -6 25 -5 39 1 21 10 41 16 121 31 22 4 50 13 62 19 12 7 31 12 42 12 12 0
29 4 39 10 9 5 76 21 147 35 267 53 290 59 293 78 5 27 -34 21 -238 -38z"/>
<path d="M3410 1621 c0 -7 93 -21 144 -21 17 0 18 2 6 10 -8 6 -27 7 -42 4
-14 -3 -29 0 -33 5 -7 13 -75 15 -75 2z"/>
<path d="M3585 1590 c3 -5 17 -10 31 -10 13 0 24 5 24 10 0 6 -14 10 -31 10
-17 0 -28 -4 -24 -10z"/>
<path d="M3665 1570 c3 -5 17 -10 31 -10 14 0 22 4 19 10 -3 6 -17 10 -31 10
-14 0 -22 -4 -19 -10z"/>
<path d="M3818 1538 c17 -8 26 -8 34 0 9 9 4 12 -22 11 -33 0 -34 -1 -12 -11z"/>
<path d="M3940 1510 c20 -13 50 -13 50 0 0 6 -15 10 -32 10 -25 0 -29 -3 -18
-10z"/>
<path d="M4166 1462 c-6 -10 113 -44 123 -36 8 7 -7 16 -41 24 -18 5 -43 12
-54 15 -12 4 -25 2 -28 -3z"/>
<path d="M4334 1415 c11 -8 31 -15 45 -14 26 1 26 1 -4 14 -42 19 -66 19 -41
0z"/>
<path d="M10223 1373 c9 -2 25 -2 35 0 9 3 1 5 -18 5 -19 0 -27 -2 -17 -5z"/>
<path d="M10065 1340 c-3 -6 5 -10 19 -10 14 0 28 5 31 10 3 6 -5 10 -19 10
-14 0 -28 -4 -31 -10z"/>
<path d="M4734 1316 c23 -18 42 -20 51 -6 3 6 0 10 -7 10 -7 0 -24 3 -38 6
-24 5 -24 5 -6 -10z"/>
<path d="M9915 1305 c-44 -14 -24 -19 38 -8 26 4 34 9 25 14 -16 10 -13 11
-63 -6z"/>
<path d="M9780 1270 c0 -6 11 -8 28 -4 39 10 40 14 4 14 -18 0 -32 -5 -32 -10z"/>
<path d="M4951 1261 c9 -6 43 -13 75 -16 74 -7 43 10 -36 19 -39 5 -50 4 -39
-3z"/>
<path d="M9625 1241 c-3 -6 10 -7 32 -4 50 8 55 13 10 13 -20 0 -38 -4 -42 -9z"/>
<path d="M5180 1210 c20 -13 50 -13 50 0 0 6 -15 10 -32 10 -25 0 -29 -3 -18
-10z"/>
<path d="M9475 1210 c-8 -13 35 -13 55 0 11 7 7 10 -17 10 -17 0 -35 -4 -38
-10z"/>
<path d="M5255 1200 c-16 -7 -11 -9 20 -9 29 -1 36 2 25 9 -17 11 -19 11 -45
0z"/>
<path d="M5330 1178 c0 -4 13 -8 30 -8 16 0 39 -4 52 -9 13 -5 75 -17 138 -26
63 -9 126 -21 141 -26 16 -6 34 -6 50 0 23 9 23 10 -8 10 -17 1 -65 8 -105 17
-40 9 -84 16 -98 16 -14 -1 -34 3 -45 8 -28 13 -155 28 -155 18z"/>
<path d="M9320 1180 c-11 -7 -6 -10 20 -10 19 0 42 5 50 10 11 7 6 10 -20 10
-19 0 -42 -5 -50 -10z"/>
<path d="M9200 1160 c-8 -5 -29 -10 -46 -10 -16 0 -39 -6 -49 -14 -15 -11 -4
-11 66 1 107 19 140 31 84 32 -22 0 -47 -4 -55 -9z"/>
<path d="M8937 1109 c7 -7 21 -7 44 -1 l34 10 -44 1 c-32 1 -42 -2 -34 -10z"/>
<path d="M8820 1101 c-8 -5 -42 -11 -75 -15 -33 -3 -91 -11 -130 -16 -38 -6
-95 -12 -125 -15 -30 -2 -98 -9 -150 -15 -52 -7 -126 -14 -165 -15 -38 -2
-151 -10 -250 -17 -280 -20 -1224 -14 -1320 9 -16 4 -59 8 -95 9 -36 1 -108 7
-160 13 -52 6 -117 14 -143 17 -28 4 -53 2 -59 -4 -6 -6 27 -12 99 -17 127 -9
137 -10 184 -19 20 -4 63 -9 95 -11 33 -2 133 -8 224 -14 351 -22 1208 -11
1470 19 47 5 159 17 250 25 91 9 196 23 235 31 38 9 100 18 137 21 37 3 68 10
68 14 0 11 -70 11 -90 0z"/>
<path d="M5840 1089 c30 -5 82 -14 115 -19 33 -5 74 -12 92 -15 17 -4 39 -2
50 4 15 8 9 10 -29 11 -26 0 -57 4 -71 9 -13 5 -66 12 -118 14 -81 5 -86 4
-39 -4z"/>
</g>
</svg>
