<?xml version="1.0" standalone="no"?>
<!DOCTYPE svg PUBLIC "-//W3C//DTD SVG 20010904//EN"
 "http://www.w3.org/TR/2001/REC-SVG-20010904/DTD/svg10.dtd">
<svg version="1.0" xmlns="http://www.w3.org/2000/svg"
 width="612.000000pt" height="408.000000pt" viewBox="0 0 612.000000 408.000000"
 preserveAspectRatio="xMidYMid meet">

<g transform="translate(0.000000,408.000000) scale(0.100000,-0.100000)"
fill="#000000" stroke="none">
<path d="M2031 3225 c-98 -31 -133 -102 -105 -212 21 -86 21 -133 -1 -166 -9
-15 -15 -33 -12 -40 3 -8 -12 -19 -42 -30 -68 -25 -175 -108 -206 -160 -22
-39 -27 -65 -38 -188 -18 -211 -14 -358 11 -449 11 -41 30 -128 42 -192 11
-64 26 -131 31 -148 11 -31 45 -48 73 -37 11 4 18 -11 30 -61 40 -181 46 -236
44 -432 -2 -190 -2 -197 26 -285 49 -153 51 -162 40 -192 -6 -19 -21 -32 -44
-40 -22 -7 -34 -17 -34 -27 1 -9 0 -16 -1 -16 -2 0 -82 16 -178 35 -321 63
-384 70 -617 70 -218 0 -303 -10 -439 -51 -80 -23 -54 -28 35 -5 150 37 227
45 409 45 204 0 307 -13 640 -79 301 -59 384 -69 522 -63 123 5 178 20 219 59
51 48 429 73 674 44 318 -37 410 -45 535 -44 89 0 143 5 170 14 49 18 207 37
335 39 59 1 142 12 220 29 154 33 377 51 530 42 191 -11 516 -52 638 -80 12
-3 22 -2 22 3 0 9 -266 55 -415 72 -44 5 -161 13 -260 16 -207 8 -369 -5 -528
-41 -57 -13 -127 -26 -153 -29 l-49 -6 35 12 c43 16 49 43 22 101 -29 64 -40
101 -66 240 -21 106 -33 143 -71 214 -51 96 -56 133 -25 193 31 60 27 88 -15
106 -44 18 -75 18 -102 -1 -19 -14 -21 -13 -26 13 -3 15 -4 29 -1 31 2 2 32
-2 66 -9 75 -14 149 -50 201 -97 49 -44 78 -54 152 -55 107 0 240 52 323 128
63 57 55 73 -36 73 -122 -1 -182 42 -271 196 -35 62 -38 71 -23 76 43 16 88
218 98 437 l7 142 39 0 c46 0 104 22 136 53 13 12 42 28 64 37 51 19 66 52 45
101 l-13 34 -34 -64 c-33 -62 -35 -63 -68 -57 -66 10 -111 59 -133 141 -56
219 -86 293 -150 367 -85 100 -189 114 -300 41 -45 -30 -63 -64 -45 -88 9 -12
11 -41 8 -90 -7 -112 22 -173 84 -178 36 -3 38 -27 4 -44 -14 -7 -52 -20 -85
-29 -55 -15 -67 -24 -177 -136 -137 -138 -136 -137 -433 -243 l-200 -71 -50
14 c-28 8 -74 21 -104 29 -32 9 -95 44 -160 87 -58 40 -146 95 -195 122 -58
32 -122 80 -188 141 -120 111 -220 167 -347 193 l-86 19 77 0 77 1 23 48 c13
26 27 50 32 54 12 9 17 187 6 208 -7 14 -5 19 11 23 33 9 17 28 -52 64 -78 40
-121 47 -178 28z m167 -36 c34 -17 60 -35 56 -40 -8 -14 -23 -11 -53 11 -72
50 -171 44 -232 -16 -43 -42 -53 -32 -14 14 58 69 145 80 243 31z m-25 -30
c38 -20 40 -23 23 -33 -42 -24 -56 -46 -56 -86 0 -43 -23 -57 -35 -20 -7 22
-39 27 -51 9 -4 -6 -12 -32 -19 -58 -7 -25 -17 -45 -24 -43 -6 1 -20 -2 -29
-7 -15 -8 -20 0 -35 64 -17 66 -17 76 -4 102 17 31 63 77 87 86 35 13 103 6
143 -14z m68 -66 c8 -20 8 -40 0 -70 -6 -23 -8 -56 -4 -74 4 -24 2 -34 -10
-41 -10 -5 -17 -15 -17 -23 0 -7 -8 -27 -17 -45 -17 -29 -20 -30 -63 -25 -25
3 -78 1 -118 -5 -41 -5 -78 -8 -83 -4 -9 5 12 52 40 87 8 9 27 17 42 17 25 0
28 4 39 55 11 53 30 81 38 57 12 -37 55 -52 59 -21 10 75 15 90 41 104 37 20
41 19 53 -12z m1975 -4 c92 -44 157 -151 206 -337 16 -65 39 -133 49 -154 22
-43 63 -77 101 -85 16 -3 28 -9 28 -13 0 -25 -100 -70 -157 -70 -18 0 -23 5
-23 24 0 30 -16 42 -34 27 -11 -9 -12 -6 -9 13 3 13 -2 49 -11 80 -20 67 -46
87 -119 91 -28 2 -58 3 -65 4 -16 1 -12 70 8 138 20 69 3 96 -91 143 -47 24
-85 36 -98 33 -26 -7 -37 17 -21 47 14 26 124 80 164 80 16 0 49 -9 72 -21z
m-129 -166 c26 -32 63 -123 63 -157 0 -12 -11 -33 -25 -46 -21 -19 -25 -21
-25 -7 0 13 -9 17 -34 17 -62 0 -97 80 -81 186 l7 46 36 -5 c22 -4 44 -17 59
-34z m52 -8 c16 -8 31 -22 35 -30 10 -26 7 -83 -4 -90 -5 -3 -10 0 -10 8 0 8
-13 40 -28 71 -16 31 -27 56 -25 56 2 0 17 -7 32 -15z m-2014 -150 c113 -24
220 -84 334 -189 65 -60 128 -107 187 -140 49 -27 130 -77 179 -111 115 -79
133 -88 234 -115 l83 -23 -31 -24 c-36 -28 -39 -46 -11 -70 11 -10 20 -29 19
-43 l0 -25 -9 23 c-5 12 -24 30 -41 40 -17 9 -50 33 -73 52 -33 28 -67 42
-161 69 -112 30 -387 147 -492 208 -51 30 -84 27 -100 -9 -11 -21 -10 -39 2
-98 17 -80 23 -213 11 -248 -15 -44 -101 -67 -290 -76 -48 -3 -90 -7 -93 -9
-12 -13 116 -28 230 -28 71 1 137 -4 148 -9 28 -16 45 -55 68 -165 12 -55 31
-136 43 -180 29 -112 28 -226 -5 -395 -48 -245 -70 -423 -57 -468 15 -56 54
-100 95 -108 43 -8 53 -31 17 -38 -152 -30 -207 -30 -216 2 -3 9 -1 46 3 82 6
48 3 89 -10 160 -33 174 -39 278 -23 387 19 123 12 202 -25 279 -39 81 -81
136 -142 184 -64 51 -102 54 -41 4 56 -48 92 -110 92 -161 0 -23 -7 -76 -16
-119 -18 -86 -17 -189 6 -570 8 -128 9 -215 4 -240 -9 -37 -11 -39 -54 -42
-57 -4 -130 6 -130 19 0 5 9 9 20 9 11 0 29 9 40 20 28 28 26 82 -9 187 -44
130 -56 233 -41 338 14 102 9 169 -30 358 -17 80 -26 152 -23 172 3 21 -2 53
-13 84 -17 48 -17 54 -1 123 9 40 24 98 32 128 9 30 18 82 21 115 5 55 3 65
-30 127 -20 37 -36 81 -36 99 0 46 -28 140 -50 169 l-20 25 0 -38 c0 -21 11
-72 25 -113 29 -87 30 -99 9 -139 -24 -46 -20 -356 6 -434 10 -31 22 -83 25
-117 6 -53 5 -62 -11 -68 -31 -12 -52 23 -70 119 -9 50 -29 144 -44 210 -37
161 -42 236 -25 390 8 72 15 150 15 174 0 92 68 174 202 243 44 23 66 28 128
28 41 0 107 -7 145 -15z m2035 -65 c0 -22 -5 -30 -18 -30 -30 0 -34 12 -10 37
27 29 28 29 28 -7z m-19 -44 c19 -4 28 -14 32 -33 14 -65 103 -163 169 -185
20 -7 -31 -107 -92 -183 -75 -95 -104 -155 -96 -197 3 -17 27 -58 52 -92 25
-33 62 -92 81 -131 110 -218 190 -285 342 -285 l55 0 -34 -35 c-40 -41 -153
-102 -224 -121 -112 -30 -182 -14 -281 66 -53 43 -152 80 -211 80 -20 0 -47 9
-64 22 -23 16 -44 21 -90 21 -56 0 -61 2 -67 25 -10 43 5 215 27 292 28 101
70 172 145 251 77 80 87 114 56 185 -12 26 -19 49 -16 52 2 3 31 -5 63 -17
101 -36 117 -26 52 33 -69 62 -96 59 -185 -24 -68 -64 -141 -118 -182 -135
-19 -8 -96 -26 -171 -41 -147 -28 -194 -43 -228 -75 -20 -19 -21 -19 -52 20
l-32 39 28 10 c15 6 99 35 187 66 252 89 266 97 401 234 111 111 123 121 179
136 33 9 69 21 80 26 11 4 27 7 35 5 8 -2 27 -6 41 -9z m164 -12 c28 -11 55
-79 55 -139 0 -30 -4 -55 -9 -55 -5 0 -30 15 -57 33 -46 30 -94 95 -109 145
-6 21 -4 22 49 22 30 0 62 -3 71 -6z m395 -63 c0 -31 -22 -61 -44 -61 -9 0 -7
13 8 45 25 52 36 57 36 16z m-290 -132 c0 -5 -7 -9 -15 -9 -9 0 -12 6 -9 15 6
15 24 11 24 -6z m-2637 -79 l6 -35 -15 34 c-8 18 -17 47 -20 65 l-4 31 14 -30
c7 -16 16 -46 19 -65z m2262 20 c34 -35 31 -36 -26 -10 -44 19 -90 26 -102 14
-3 -4 3 -24 13 -45 11 -21 20 -56 20 -78 0 -34 -8 -48 -72 -117 -79 -88 -117
-158 -148 -279 -22 -82 -32 -268 -17 -292 5 -8 31 -13 66 -13 35 0 65 -6 77
-15 18 -14 18 -14 -4 -15 -37 0 -89 -27 -107 -54 -15 -22 -15 -31 -5 -58 19
-50 23 -703 4 -739 -12 -25 -30 -34 -98 -55 -65 -20 -11 -41 109 -44 58 -2 59
-2 25 -12 -51 -15 -268 -4 -535 27 -203 24 -253 26 -430 21 -110 -3 -235 -11
-277 -19 -71 -12 -77 -12 -81 4 -3 9 -19 20 -38 24 -64 14 -99 67 -99 152 0
56 30 254 65 436 34 173 32 241 -9 412 -19 77 -37 158 -41 180 -3 22 -15 59
-25 83 -28 62 -54 70 -208 64 -70 -2 -125 -2 -122 1 3 3 50 10 105 17 118 14
181 38 195 75 14 37 12 126 -5 220 -19 103 -19 130 1 146 14 11 26 8 83 -23
130 -71 358 -167 481 -203 91 -26 133 -44 155 -65 17 -15 45 -35 62 -44 18 -9
40 -30 48 -46 19 -37 35 -39 35 -5 0 30 5 31 66 4 43 -18 50 -19 60 -5 6 9 9
27 7 40 -4 18 3 29 29 49 42 31 74 41 229 71 145 28 201 53 289 128 134 115
138 118 169 107 16 -6 41 -23 56 -39z m375 -19 c0 -164 -39 -412 -76 -483
l-16 -32 -15 28 c-9 17 -12 39 -8 55 3 14 9 100 13 191 7 158 9 168 39 232 24
51 36 66 47 62 11 -4 16 -20 16 -53z m-117 -238 c-3 -87 -5 -181 -6 -208 l-2
-50 -37 55 c-20 30 -46 66 -57 80 -23 28 -28 88 -10 123 10 19 110 157 114
157 1 0 0 -71 -2 -157z m-2453 -9 c0 -33 -10 -96 -21 -140 -12 -43 -27 -104
-34 -134 l-12 -55 -11 55 c-5 30 -11 120 -11 199 -1 118 1 150 16 181 l18 37
27 -41 c23 -33 28 -52 28 -102z m1380 3 l20 -32 -26 -13 c-29 -16 -81 -3 -108
27 -15 16 -15 19 1 33 52 44 80 41 113 -15z m26 -84 c-3 -4 -16 -1 -28 4 l-23
11 25 10 c19 7 26 6 28 -5 2 -8 1 -17 -2 -20z m-1124 -542 c39 -78 47 -159 28
-301 -14 -103 -3 -249 27 -380 11 -46 13 -90 8 -151 -5 -72 -4 -89 10 -103 19
-19 75 -21 159 -5 70 13 83 5 30 -17 -60 -26 -186 -38 -299 -29 -92 7 -98 9
-71 20 17 7 33 21 37 31 13 32 10 177 -7 460 l-17 271 21 114 c22 115 21 141
-8 200 -8 17 -2 14 19 -11 17 -19 46 -64 63 -99z m1768 10 c6 -12 10 -107 10
-238 0 -197 -3 -230 -26 -338 -14 -66 -27 -165 -29 -220 -4 -99 -4 -100 -30
-105 -45 -8 -190 1 -174 11 8 5 24 9 36 9 12 0 35 13 51 30 41 40 47 94 32
289 -9 118 -10 183 -2 253 11 89 10 108 -14 243 -6 34 12 56 61 73 46 16 73
14 85 -7z m153 -43 c23 -12 22 -26 -8 -90 -14 -29 -25 -62 -25 -72 0 -11 23
-65 50 -120 41 -82 55 -124 74 -226 24 -124 46 -201 72 -252 23 -44 1 -67 -61
-68 -18 0 -22 10 -32 81 -9 69 -21 103 -86 232 -95 192 -101 213 -92 296 11
94 11 141 2 184 -7 33 -6 38 15 46 24 9 60 5 91 -11z m-123 -188 c-9 -20 -10
-15 -5 30 3 30 6 69 7 85 1 17 3 3 5 -30 2 -34 -1 -72 -7 -85z m100 -345 c63
-124 72 -149 80 -220 4 -44 7 -81 6 -82 -4 -4 -180 -23 -212 -23 -29 0 -32 3
-38 40 -7 42 13 204 38 310 9 36 16 101 16 145 l1 80 19 -55 c11 -30 51 -118
90 -195z"/>
</g>
</svg>
